<?xml version="1.0" standalone="no"?><svg xmlns="http://www.w3.org/2000/svg" viewBox="0 0 1440 320"><path fill="#f3f4f5" fill-opacity="0.5" d="M0,0L34.3,32C68.6,64,137,128,206,160C274.3,192,343,192,411,186.7C480,181,549,171,617,154.7C685.7,139,754,117,823,144C891.4,171,960,245,1029,277.3C1097.1,309,1166,299,1234,266.7C1302.9,235,1371,181,1406,154.7L1440,128L1440,320L1405.7,320C1371.4,320,1303,320,1234,320C1165.7,320,1097,320,1029,320C960,320,891,320,823,320C754.3,320,686,320,617,320C548.6,320,480,320,411,320C342.9,320,274,320,206,320C137.1,320,69,320,34,320L0,320Z"></path></svg>